<svg width="34" height="29" viewBox="0 0 34 29" fill="none" xmlns="http://www.w3.org/2000/svg">
<path d="M32.8432 0.487977C32.5306 0.175526 32.1068 0 31.6648 0C31.2229 0 30.799 0.175526 30.4865 0.487977L28.3315 2.64298L27.8432 2.15464C27.6894 1.99546 27.5055 1.86849 27.3022 1.78114C27.0988 1.69379 26.8801 1.64782 26.6588 1.64589C26.4375 1.64397 26.2181 1.68614 26.0132 1.76994C25.8084 1.85374 25.6223 1.9775 25.4658 2.13399C25.3093 2.29047 25.1856 2.47656 25.1018 2.68139C25.018 2.88621 24.9758 3.10568 24.9777 3.32698C24.9797 3.54828 25.0256 3.76698 25.113 3.97032C25.2003 4.17366 25.3273 4.35757 25.4865 4.51131L27.1532 6.17798C27.4657 6.49043 27.8895 6.66595 28.3315 6.66595C28.7734 6.66595 29.1973 6.49043 29.5098 6.17798L32.8432 2.84464C33.1556 2.5321 33.3311 2.10825 33.3311 1.66631C33.3311 1.22437 33.1556 0.800523 32.8432 0.487977ZM20.0048 23.333H1.66482L1.46982 23.3446C1.04799 23.3948 0.661245 23.6042 0.388595 23.9299C0.115945 24.2557 -0.0220285 24.6732 0.00286673 25.0973C0.0277619 25.5214 0.213646 25.9199 0.52254 26.2116C0.831433 26.5032 1.24002 26.6658 1.66482 26.6663H20.0048L20.1998 26.6546C20.6218 26.6045 21.0086 26.395 21.2813 26.069C21.554 25.7431 21.6918 25.3253 21.6667 24.9011C21.6416 24.4769 21.4554 24.0784 21.1462 23.7869C20.837 23.4954 20.4298 23.333 20.0048 23.333ZM20.0048 13.333H1.66482L1.46982 13.3446C1.04799 13.3948 0.661245 13.6042 0.388595 13.9299C0.115945 14.2557 -0.0220285 14.6732 0.00286673 15.0973C0.0277619 15.5214 0.213646 15.9199 0.52254 16.2116C0.831433 16.5032 1.24002 16.6658 1.66482 16.6663H20.0048L20.1998 16.6546C20.6218 16.6045 21.0086 16.395 21.2813 16.069C21.554 15.7431 21.6918 15.3253 21.6667 14.9011C21.6416 14.4769 21.4554 14.0784 21.1462 13.7869C20.837 13.4954 20.4298 13.333 20.0048 13.333ZM20.0048 3.33298H1.66482L1.46982 3.34464C1.04799 3.39482 0.661245 3.60417 0.388595 3.92992C0.115945 4.25568 -0.0220285 4.67325 0.00286673 5.09732C0.0277619 5.52139 0.213646 5.91995 0.52254 6.21156C0.831433 6.50318 1.24002 6.66584 1.66482 6.66631H20.0048L20.1998 6.65464C20.6218 6.60445 21.0086 6.39498 21.2813 6.06904C21.554 5.74311 21.6918 5.32534 21.6667 4.90114C21.6416 4.47694 21.4554 4.07835 21.1462 3.78687C20.837 3.49539 20.4298 3.33303 20.0048 3.33298ZM32.8432 22.1546C32.5306 21.8422 32.1068 21.6667 31.6648 21.6667C31.2229 21.6667 30.799 21.8422 30.4865 22.1546L28.3315 24.3096L27.8432 23.8213C27.5288 23.5177 27.1078 23.3497 26.6708 23.3535C26.2338 23.3573 25.8158 23.5326 25.5068 23.8416C25.1978 24.1506 25.0225 24.5686 25.0187 25.0056C25.0149 25.4426 25.1829 25.8636 25.4865 26.178L27.1532 27.8446C27.4657 28.1571 27.8895 28.3326 28.3315 28.3326C28.7734 28.3326 29.1973 28.1571 29.5098 27.8446L32.8432 24.5113C33.1556 24.1988 33.3311 23.7749 33.3311 23.333C33.3311 22.891 33.1556 22.4672 32.8432 22.1546ZM30.4865 11.3213C30.6402 11.1621 30.8241 11.0352 31.0275 10.9478C31.2308 10.8605 31.4495 10.8145 31.6708 10.8126C31.8921 10.8106 32.1116 10.8528 32.3164 10.9366C32.5212 11.0204 32.7073 11.1442 32.8638 11.3007C33.0203 11.4571 33.1441 11.6432 33.2279 11.8481C33.3117 12.0529 33.3538 12.2723 33.3519 12.4936C33.35 12.7149 33.304 12.9336 33.2167 13.137C33.1293 13.3403 33.0023 13.5242 32.8432 13.678L29.5098 17.0113C29.1973 17.3238 28.7734 17.4993 28.3315 17.4993C27.8895 17.4993 27.4657 17.3238 27.1532 17.0113L25.4865 15.3446C25.1829 15.0303 25.0149 14.6093 25.0187 14.1723C25.0225 13.7353 25.1978 13.3173 25.5068 13.0083C25.8158 12.6993 26.2338 12.524 26.6708 12.5202C27.1078 12.5164 27.5288 12.6844 27.8432 12.988L28.3315 13.4763L30.4865 11.3213Z" fill="#817D7D"/>
</svg>
