<svg width="151" height="101" viewBox="0 0 151 101" fill="none" xmlns="http://www.w3.org/2000/svg">
<path d="M113.05 42.8756C113.582 44.7899 115.602 45.9597 117.517 45.428C119.431 44.8962 120.601 42.8756 120.069 40.9612C119.537 39.0469 117.517 37.8771 115.602 38.4088C113.688 38.8342 112.518 40.8549 113.05 42.8756Z" fill="#2A4C87"/>
<path d="M108.06 46.7036C109.336 46.3845 110.187 45.0019 109.868 43.6194C109.549 42.3432 108.166 41.4924 106.784 41.8114C105.508 42.1305 104.657 43.513 104.976 44.8956C105.295 46.2782 106.677 47.129 108.06 46.7036Z" fill="#2A4C87"/>
<path d="M100.714 47.9808C101.671 47.6617 102.309 46.7045 101.99 45.7474C101.671 44.7902 100.714 44.1521 99.7571 44.4712C98.8 44.7902 98.1619 45.7474 98.4809 46.7045C98.6936 47.6617 99.7571 48.2998 100.714 47.9808Z" fill="#2A4C87"/>
<path d="M94.9626 48.9396C95.6006 48.7269 95.9197 48.0887 95.8133 47.557C95.707 46.9189 94.9626 46.5998 94.4308 46.7062C93.7928 46.9189 93.4737 47.557 93.5801 48.0887C93.6864 48.6205 94.3245 49.0459 94.9626 48.9396Z" fill="#2E4E88"/>
<path d="M110.284 35.4312C111.241 37.0264 113.262 37.5582 114.857 36.7074C116.452 35.7502 116.984 33.7295 116.133 32.1343C115.176 30.539 113.156 30.0073 111.56 30.8581C109.965 31.7089 109.434 33.8359 110.284 35.4312Z" fill="#1F3D70"/>
<path d="M102.955 39.5776C103.593 40.7475 104.976 41.0665 106.145 40.4284C107.315 39.7903 107.634 38.4077 106.996 37.2379C106.358 36.068 104.976 35.749 103.806 36.3871C102.742 37.0252 102.317 38.5141 102.955 39.5776Z" fill="#1F3D70"/>
<path d="M97.7293 40.7479C96.8785 41.1733 96.6658 42.2368 97.0912 42.9812C97.5166 43.832 98.5801 44.0447 99.3245 43.6193C100.175 43.1939 100.388 42.1304 99.9625 41.386C99.5372 40.5352 98.4737 40.3225 97.7293 40.7479Z" fill="#1F3D70"/>
<path d="M93.0496 44.1528C92.5179 44.4719 92.3052 45.11 92.6243 45.6417C92.9433 46.1735 93.5814 46.3862 94.1131 46.0672C94.6448 45.7481 94.8575 45.11 94.5385 44.5782C94.2194 44.0465 93.475 43.8338 93.0496 44.1528Z" fill="#1F3D70"/>
<path d="M109.958 28.8375C111.128 27.6676 111.128 25.7533 109.958 24.5834C108.788 23.4136 106.874 23.4136 105.704 24.5834C104.534 25.7533 104.534 27.6676 105.704 28.8375C106.874 30.0073 108.788 30.0073 109.958 28.8375Z" fill="#194C88"/>
<path d="M102.628 31.9213C101.777 31.0705 100.395 31.0705 99.5441 31.9213C98.6933 32.7721 98.6933 34.1547 99.5441 35.0055C100.395 35.8563 101.777 35.8563 102.628 35.0055C103.479 34.1547 103.479 32.7721 102.628 31.9213Z" fill="#194C88"/>
<path d="M94.7586 37.6641C94.1205 38.3022 94.1205 39.2594 94.7586 39.7911C95.3966 40.4292 96.3537 40.4292 96.8855 39.7911C97.5235 39.153 97.5235 38.1959 96.8855 37.6641C96.3537 37.026 95.3966 37.026 94.7586 37.6641Z" fill="#194C88"/>
<path d="M91.0365 43.4072C91.4619 43.8326 92.1 43.8326 92.419 43.4072C92.8444 42.9818 92.8444 42.3437 92.419 42.0246C91.9936 41.5992 91.3555 41.5992 91.0365 42.0246C90.7175 42.45 90.7175 43.0881 91.0365 43.4072Z" fill="#194C88"/>
<path d="M99.438 23.8391C100.82 24.5835 102.522 24.1581 103.266 22.7756C104.011 21.393 103.585 19.6914 102.203 18.9469C100.82 18.2025 99.119 18.6279 98.3746 20.0105C97.5238 21.2867 98.0555 22.9883 99.438 23.8391Z" fill="#3468A3"/>
<path d="M94.3328 28.624C93.8011 29.5812 94.1201 30.8574 95.0772 31.3892C96.0343 31.9209 97.3105 31.6019 97.8422 30.6447C98.3739 29.6876 98.0549 28.4113 97.0978 27.8796C96.0343 27.2415 94.8645 27.6669 94.3328 28.624Z" fill="#3468A3"/>
<path d="M92.9506 34.7926C92.3126 34.4735 91.4618 34.6862 91.1428 35.3243C90.8238 35.9624 91.0364 36.8132 91.6745 37.1323C92.3126 37.4513 93.1633 37.2386 93.4824 36.6005C93.8014 36.0688 93.5887 35.218 92.9506 34.7926Z" fill="#3468A3"/>
<path d="M89.8667 40.2167C89.4414 40.004 88.9096 40.1104 88.5906 40.5358C88.3779 40.9612 88.4843 41.4929 88.9096 41.812C89.335 42.131 89.8667 41.9183 90.1858 41.4929C90.5048 40.9612 90.2921 40.4294 89.8667 40.2167Z" fill="#3468A3"/>
<path d="M91.8949 20.539C93.2773 20.9644 94.7662 20.1136 95.1915 18.6247C95.6169 17.2421 94.7662 15.7532 93.2773 15.3278C91.8949 15.0087 90.406 15.7532 89.9807 17.2421C89.6616 18.731 90.5124 20.1136 91.8949 20.539Z" fill="#4C8DCB"/>
<path d="M89.654 28.9432C90.6111 29.2622 91.6745 28.6241 91.8872 27.6669C92.2062 26.7098 91.5682 25.6463 90.6111 25.4336C89.654 25.1145 88.5905 25.7526 88.3779 26.7098C88.1652 27.6669 88.6969 28.6241 89.654 28.9432Z" fill="#4C8DCB"/>
<path d="M87.9613 35.5347C88.5994 35.7474 89.3438 35.322 89.4502 34.6839C89.6628 34.0458 89.2375 33.3013 88.5994 33.195C87.9613 32.9823 87.2169 33.4077 87.1106 34.0458C86.8979 34.6839 87.2169 35.322 87.9613 35.5347Z" fill="#4C8DCB"/>
<path d="M85.9253 39.6831C85.8189 40.1085 86.0316 40.6403 86.5633 40.7466C86.9887 40.853 87.5204 40.6403 87.6268 40.1085C87.7331 39.6831 87.5204 39.1514 86.9887 39.045C86.5633 38.9387 86.0316 39.2577 85.9253 39.6831Z" fill="#4C8DCB"/>
<path d="M83.8052 19.2656C85.1877 19.2656 86.3575 18.0957 86.3575 16.7132C86.3575 15.3306 85.1877 14.2671 83.8052 14.2671C82.4227 14.2671 81.2529 15.4369 81.2529 16.8195C81.3593 18.2021 82.5291 19.2656 83.8052 19.2656Z" fill="#3498B3"/>
<path d="M83.8105 24.689C82.8534 24.689 82.109 25.4334 82.109 26.3906C82.109 27.3477 82.8534 28.0922 83.8105 28.0922C84.7676 28.0922 85.512 27.3477 85.512 26.3906C85.512 25.4334 84.7676 24.689 83.8105 24.689Z" fill="#3498B3"/>
<path d="M84.9811 33.7314C84.9811 33.0933 84.4493 32.5615 83.8113 32.5615C83.1732 32.5615 82.6415 33.0933 82.6415 33.7314C82.6415 34.3695 83.1732 34.9012 83.8113 34.9012C84.5557 34.9012 84.9811 34.3695 84.9811 33.7314Z" fill="#3498B3"/>
<path d="M83.7957 38.7275C83.3703 38.7275 83.0513 39.0466 83.0513 39.472C83.0513 39.8974 83.3703 40.2165 83.7957 40.2165C84.2211 40.2165 84.5401 39.8974 84.5401 39.472C84.6464 39.0466 84.2211 38.7275 83.7957 38.7275Z" fill="#3498B3"/>
<path d="M75.7225 20.2231C76.9987 19.9041 77.7431 18.6279 77.3177 17.3517C76.9987 16.0755 75.7225 15.331 74.4464 15.7564C73.1703 16.1818 72.4259 17.3517 72.8512 18.6279C73.1703 19.7977 74.4464 20.5422 75.7225 20.2231Z" fill="#0AA496"/>
<path d="M76.1406 27.5609C76.3533 28.4117 77.2041 28.8371 77.9485 28.6244C78.7992 28.4117 79.2246 27.5609 79.0119 26.8164C78.7992 25.9656 77.9485 25.5402 77.2041 25.7529C76.3533 25.9656 75.9279 26.7101 76.1406 27.5609Z" fill="#0AA496"/>
<path d="M78.3811 34.5806C78.4874 35.2187 79.1255 35.5378 79.6572 35.3251C80.2953 35.2187 80.6143 34.5806 80.4016 34.0488C80.2953 33.4107 79.6572 33.0917 79.1255 33.3044C78.5938 33.4107 78.2747 34.0488 78.3811 34.5806Z" fill="#0AA496"/>
<path d="M80.2961 40.1099C80.4024 40.429 80.7215 40.6417 81.1468 40.5353C81.4659 40.429 81.6786 40.1099 81.5722 39.6845C81.4659 39.3655 81.1468 39.1528 80.7215 39.2591C80.4024 39.3655 80.1898 39.6845 80.2961 40.1099Z" fill="#0AA496"/>
<path d="M68.0662 23.3068C69.1296 22.6687 69.4486 21.3925 68.9169 20.329C68.3852 19.2655 67.0027 18.9464 65.9393 19.4782C64.8758 20.1163 64.5568 21.3925 65.0885 22.456C65.6202 23.5195 67.0027 23.8386 68.0662 23.3068Z" fill="#00AA75"/>
<path d="M72.3258 30.7505C72.9638 30.4314 73.1765 29.5806 72.8575 28.9425C72.5385 28.3044 71.6877 28.0917 71.0496 28.4107C70.4116 28.7298 70.1989 29.5806 70.5179 30.2187C70.9433 30.8568 71.6877 31.0695 72.3258 30.7505Z" fill="#00AA75"/>
<path d="M75.9278 36.9211C76.4595 36.6021 76.5658 36.0703 76.2468 35.5386C75.9278 35.0068 75.3961 34.9005 74.8643 35.2195C74.3326 35.5386 74.2263 36.0703 74.5453 36.6021C74.758 37.0275 75.3961 37.1338 75.9278 36.9211Z" fill="#00AA75"/>
<path d="M78.8065 40.7485C78.5938 40.4294 78.2747 40.4294 77.9557 40.5358C77.743 40.6421 77.6367 41.0675 77.743 41.2802C77.9557 41.5993 78.2747 41.5993 78.4874 41.4929C78.8065 41.3866 78.9128 40.9612 78.8065 40.7485Z" fill="#00AA75"/>
<path d="M61.3669 28.1993C62.1113 27.4549 62.1113 26.1787 61.3669 25.3279C60.6225 24.5834 59.3463 24.5834 58.4956 25.3279C57.7512 26.0723 57.7512 27.3485 58.4956 28.1993C59.3463 28.9438 60.6225 28.9438 61.3669 28.1993Z" fill="#4FBA6A"/>
<path d="M67.5344 32.6657C67.1091 32.2403 66.3646 32.2403 65.9393 32.6657C65.5139 33.0911 65.5139 33.8356 65.9393 34.261C66.3646 34.6864 67.1091 34.6864 67.5344 34.261C67.9598 33.8356 67.9598 33.0911 67.5344 32.6657Z" fill="#4FBA6A"/>
<path d="M72.5421 38.0909C72.2231 37.7718 71.585 37.7718 71.266 38.0909C70.947 38.4099 70.947 39.048 71.266 39.3671C71.585 39.6861 72.2231 39.6861 72.5421 39.3671C72.8612 39.048 72.8612 38.4099 72.5421 38.0909Z" fill="#4FBA6A"/>
<path d="M76.3515 42.4515C76.1389 42.2388 75.8198 42.2388 75.7135 42.4515C75.5008 42.6642 75.5008 42.9833 75.7135 43.0896C75.9262 43.196 76.2452 43.3023 76.3515 43.0896C76.5642 42.9833 76.5642 42.6642 76.3515 42.4515Z" fill="#4FBA6A"/>
<path d="M53.6114 35.325C54.4622 35.8568 55.6319 35.5377 56.1637 34.6869C56.6954 33.8361 56.3763 32.6662 55.5256 32.1345C54.6748 31.6027 53.5051 31.9218 52.9733 32.7726C52.4416 33.6234 52.7606 34.7933 53.6114 35.325Z" fill="#7EC45F"/>
<path d="M63.2806 37.6644C62.7489 37.3453 62.2171 37.558 61.8981 37.9834C61.5791 38.5152 61.7918 39.0469 62.2172 39.366C62.7489 39.685 63.2806 39.4723 63.5996 39.0469C63.9187 38.5152 63.706 37.9834 63.2806 37.6644Z" fill="#7EC45F"/>
<path d="M69.6609 41.4936C69.2355 41.2809 68.7038 41.3872 68.4911 41.8126C68.2784 42.238 68.3848 42.7698 68.8101 42.9825C69.2355 43.1952 69.7672 43.0888 69.9799 42.6634C70.1926 42.238 69.9799 41.7063 69.6609 41.4936Z" fill="#7EC45F"/>
<path d="M117.738 46.5996C115.505 46.5996 113.697 48.4076 113.697 50.6409C113.697 52.8743 115.505 54.6823 117.738 54.6823C119.971 54.6823 121.779 52.8743 121.779 50.6409C121.779 48.4076 119.971 46.5996 117.738 46.5996Z" fill="#4C609B"/>
<path d="M111.143 50.6381C111.143 49.0428 109.867 47.7666 108.271 47.7666C106.676 47.7666 105.4 49.0428 105.4 50.6381C105.4 52.2333 106.676 53.5095 108.271 53.5095C109.867 53.5095 111.143 52.2333 111.143 50.6381Z" fill="#4C609B"/>
<path d="M100.82 48.7251C99.7568 48.7251 98.906 49.5759 98.906 50.6394C98.906 51.7029 99.7568 52.5537 100.82 52.5537C101.884 52.5537 102.734 51.7029 102.734 50.6394C102.841 49.5759 101.884 48.7251 100.82 48.7251Z" fill="#4C609B"/>
<path d="M96.3538 50.639C96.3538 49.8945 95.8221 49.3628 95.0776 49.3628C94.3332 49.3628 93.8015 49.8945 93.8015 50.639C93.8015 51.3835 94.3332 51.9152 95.0776 51.9152C95.8221 51.9152 96.3538 51.3835 96.3538 50.639Z" fill="#54669F"/>
<path d="M117.517 55.8507C115.602 55.319 113.582 56.4888 113.05 58.4031C112.518 60.3174 113.688 62.3381 115.602 62.8699C117.517 63.4016 119.537 62.2318 120.069 60.3174C120.707 58.4031 119.431 56.3825 117.517 55.8507Z" fill="#746FA7"/>
<path d="M106.769 59.36C108.045 59.679 109.428 58.9346 109.853 57.552C110.172 56.2758 109.428 54.8932 108.045 54.4678C106.769 54.1488 105.387 54.8932 104.961 56.2758C104.642 57.6583 105.387 58.9346 106.769 59.36Z" fill="#746FA7"/>
<path d="M99.7571 56.8079C100.714 57.127 101.778 56.4888 101.99 55.5317C102.309 54.5745 101.671 53.511 100.714 53.2983C99.7571 52.9793 98.6936 53.6174 98.4809 54.5745C98.1619 55.5317 98.8 56.4889 99.7571 56.8079Z" fill="#746FA7"/>
<path d="M94.3247 54.6808C94.9627 54.8935 95.6008 54.4681 95.7072 53.83C95.9198 53.1919 95.4945 52.5538 94.8564 52.4474C94.2183 52.2347 93.5803 52.6601 93.4739 53.2982C93.3676 53.83 93.793 54.4681 94.3247 54.6808Z" fill="#746FA7"/>
<path d="M114.847 64.6773C113.252 63.7201 111.232 64.3582 110.275 65.9535C109.318 67.5487 109.956 69.5694 111.551 70.5265C113.146 71.4837 115.166 70.8456 116.124 69.2503C116.974 67.6551 116.443 65.6344 114.847 64.6773Z" fill="#99558E"/>
<path d="M106.978 63.9311C107.616 62.7613 107.297 61.3787 106.128 60.7406C104.958 60.1025 103.575 60.4215 102.937 61.5914C102.299 62.7613 102.618 64.1438 103.788 64.7819C104.958 65.5264 106.34 65.101 106.978 63.9311Z" fill="#99558E"/>
<path d="M99.9625 59.8928C100.388 59.042 100.175 58.0849 99.3245 57.6595C98.4737 57.2341 97.5166 57.4468 97.0912 58.2976C96.6658 59.1484 96.8785 60.1055 97.7293 60.531C98.4737 60.9564 99.5372 60.7437 99.9625 59.8928Z" fill="#99558E"/>
<path d="M94.5385 56.6989C94.8575 56.1671 94.6448 55.529 94.1131 55.21C93.5814 54.8909 92.9433 55.1036 92.6243 55.6354C92.3052 56.1671 92.5179 56.8052 93.0496 57.1243C93.5814 57.4433 94.2194 57.2306 94.5385 56.6989Z" fill="#99558E"/>
<path d="M105.704 72.4384C104.534 73.6083 104.534 75.5226 105.704 76.6925C106.874 77.8623 108.788 77.8623 109.958 76.6925C111.128 75.5226 111.128 73.6083 109.958 72.4384C108.788 71.2686 106.874 71.2686 105.704 72.4384Z" fill="#AF3379"/>
<path d="M102.628 69.357C103.479 68.5062 103.479 67.1237 102.628 66.2729C101.777 65.4221 100.395 65.4221 99.5441 66.2729C98.6933 67.1237 98.6933 68.5062 99.5441 69.357C100.395 70.2078 101.777 70.2078 102.628 69.357Z" fill="#AF3379"/>
<path d="M96.8855 63.6134C97.5235 62.9753 97.5235 62.0181 96.8855 61.4864C96.2474 60.8483 95.2903 60.8483 94.7586 61.4864C94.1205 62.1245 94.1205 63.0817 94.7586 63.6134C95.3966 64.2515 96.3537 64.2515 96.8855 63.6134Z" fill="#AF3379"/>
<path d="M91.0365 59.2534C91.4619 59.6788 92.1 59.6788 92.419 59.2534C92.8444 58.828 92.8444 58.1899 92.419 57.8708C91.9936 57.4454 91.3555 57.4454 91.0365 57.8708C90.7175 58.1899 90.7175 58.828 91.0365 59.2534Z" fill="#AF3379"/>
<path d="M99.431 77.4401C98.0485 78.1846 97.6232 79.9925 98.3676 81.2687C99.112 82.6513 100.92 83.0767 102.196 82.3323C103.472 81.5878 104.004 79.7798 103.259 78.5036C102.515 77.1211 100.707 76.6957 99.431 77.4401Z" fill="#BE266A"/>
<path d="M97.7361 70.7394C97.2044 69.7822 95.9282 69.4632 94.9711 69.9949C94.014 70.5267 93.695 71.8029 94.2267 72.7601C94.7585 73.7172 96.0346 74.0363 96.9917 73.5045C97.9488 72.8664 98.3742 71.6965 97.7361 70.7394Z" fill="#BE266A"/>
<path d="M92.9506 66.4853C93.5887 66.1663 93.8014 65.3155 93.4824 64.6774C93.1633 64.0393 92.3126 63.8266 91.6745 64.1456C91.0364 64.4647 90.8238 65.3155 91.1428 65.9536C91.5682 66.5917 92.3126 66.8044 92.9506 66.4853Z" fill="#BE266A"/>
<path d="M89.016 59.4662C88.5906 59.6789 88.3779 60.317 88.6969 60.7424C88.9096 61.1678 89.5477 61.3805 89.9731 61.0615C90.3985 60.8488 90.6111 60.2107 90.2921 59.7853C89.9731 59.3599 89.4414 59.2535 89.016 59.4662Z" fill="#BE266A"/>
<path d="M91.8949 80.736C90.5124 81.1614 89.6616 82.5439 89.9807 84.0328C90.406 85.4154 91.7885 86.2662 93.2773 85.9472C94.6598 85.5218 95.5106 84.1392 95.1915 82.6503C94.8725 81.1614 93.3837 80.3106 91.8949 80.736Z" fill="#D4525C"/>
<path d="M90.6115 75.8445C91.5686 75.5255 92.2067 74.5683 91.8876 73.6112C91.5686 72.654 90.6115 72.0159 89.6544 72.3349C88.6973 72.654 88.0592 73.6112 88.3783 74.5683C88.6973 75.6318 89.6544 76.1636 90.6115 75.8445C90.6115 75.9509 90.6115 75.9509 90.6115 75.8445Z" fill="#D4525C"/>
<path d="M89.4418 66.5922C89.2291 65.9541 88.591 65.5287 87.953 65.7414C87.3149 65.9541 86.8895 66.5922 87.1022 67.2303C87.3149 67.8684 87.953 68.2938 88.591 68.0811C89.2291 67.9747 89.6545 67.3366 89.4418 66.5922C89.4418 66.6985 89.4418 66.6985 89.4418 66.5922Z" fill="#D4525C"/>
<path d="M87.5184 61.168C87.412 60.7426 86.8803 60.4235 86.4549 60.5299C86.0296 60.6362 85.7105 61.168 85.8169 61.5934C85.9232 62.0188 86.3486 62.3379 86.8803 62.2315C87.412 62.1252 87.6247 61.5934 87.5184 61.168Z" fill="#D4525C"/>
<path d="M83.8052 82.0122C82.4227 82.0122 81.2529 83.1821 81.2529 84.5646C81.2529 85.9472 82.4227 87.117 83.8052 87.117C85.1877 87.117 86.3575 86.0535 86.3575 84.5646C86.3575 83.0757 85.294 82.0122 83.8052 82.0122Z" fill="#E0654F"/>
<path d="M82.2095 74.9936C82.2095 75.9508 82.9539 76.6952 83.911 76.6952C84.8681 76.6952 85.6125 75.9508 85.6125 74.9936C85.6125 74.0365 84.8681 73.292 83.911 73.292C82.9539 73.292 82.2095 74.0365 82.2095 74.9936Z" fill="#E0654F"/>
<path d="M83.8113 68.7181C84.4493 68.7181 84.9811 68.1864 84.9811 67.5483C84.9811 66.9102 84.4493 66.3784 83.8113 66.3784C83.1732 66.3784 82.6415 66.9102 82.6415 67.5483C82.7478 68.1864 83.1732 68.7181 83.8113 68.7181Z" fill="#E0654F"/>
<path d="M83.7957 61.0625C83.3703 61.0625 83.0513 61.3816 83.0513 61.807C83.0513 62.2324 83.3703 62.5514 83.7957 62.5514C84.2211 62.5514 84.5401 62.2324 84.5401 61.807C84.6464 61.3816 84.2211 61.0625 83.7957 61.0625Z" fill="#E0654F"/>
<path d="M75.7133 81.0546C74.4372 80.7355 73.1611 81.48 72.842 82.6498C72.523 83.926 73.2674 85.2023 74.4372 85.5213C75.7133 85.8404 76.9895 85.0959 77.3085 83.926C77.6275 82.6498 76.8831 81.3736 75.7133 81.0546Z" fill="#F57F2A"/>
<path d="M77.9622 72.6537C77.1114 72.441 76.367 72.9728 76.1543 73.7172C75.9416 74.568 76.4733 75.3125 77.2178 75.5252C78.0685 75.7379 78.8129 75.2061 79.0256 74.4617C79.2383 73.7172 78.7066 72.8664 77.9622 72.6537Z" fill="#F57F2A"/>
<path d="M79.764 65.847C79.126 65.7407 78.5942 66.0597 78.4879 66.5915C78.3816 67.2296 78.7006 67.7614 79.2323 67.8677C79.8704 67.9741 80.4021 67.655 80.5084 67.1232C80.7211 66.6978 80.2958 66.0597 79.764 65.847Z" fill="#F57F2A"/>
<path d="M81.5722 61.5933C81.6786 61.2743 81.4659 60.8489 81.1468 60.7425C80.8278 60.6362 80.4024 60.8489 80.2961 61.1679C80.1898 61.487 80.4024 61.9124 80.7215 62.0187C81.1468 62.1251 81.5722 61.9124 81.5722 61.5933Z" fill="#F57F2A"/>
<path d="M68.0598 77.9694C66.9964 77.3313 65.7203 77.7567 65.0822 78.7139C64.4441 79.7774 64.8695 81.0536 65.8266 81.6917C66.8901 82.3298 68.1662 81.9044 68.8043 80.9473C69.4423 79.9901 69.0169 78.6075 68.0598 77.9694Z" fill="#F89828"/>
<path d="M72.3258 70.525C71.6877 70.2059 70.8369 70.4186 70.5179 71.0568C70.1989 71.6949 70.4116 72.5457 71.0496 72.8647C71.6877 73.1838 72.5385 72.9711 72.8575 72.333C73.1765 71.6949 72.9638 70.8441 72.3258 70.525Z" fill="#F89828"/>
<path d="M74.8794 66.1643C75.4111 66.4834 75.9428 66.2707 76.2619 65.8453C76.5809 65.4199 76.3682 64.7818 75.9428 64.4627C75.4111 64.1436 74.8794 64.3563 74.5603 64.7818C74.2413 65.2072 74.454 65.8453 74.8794 66.1643Z" fill="#F89828"/>
<path d="M78.6008 59.785C78.2818 59.5723 77.9627 59.6786 77.8564 59.9977C77.6437 60.3167 77.75 60.6358 78.0691 60.7421C78.3881 60.9548 78.7071 60.8485 78.8135 60.5294C78.9198 60.3167 78.8135 59.8913 78.6008 59.785Z" fill="#F89828"/>
<path d="M58.4956 73.0793C57.7512 73.8238 57.7512 75.1 58.4956 75.9508C59.24 76.8016 60.5161 76.6953 61.3669 75.9508C62.1113 75.2064 62.1113 73.9301 61.3669 73.0793C60.6225 72.3349 59.3463 72.3349 58.4956 73.0793Z" fill="#FEC127"/>
<path d="M65.8333 67.0175C65.4079 67.4429 65.4079 68.1873 65.8333 68.6127C66.2587 69.0381 67.0031 69.0381 67.4285 68.6127C67.8539 68.1873 67.8539 67.4429 67.4285 67.0175C67.0031 66.4857 66.2587 66.4857 65.8333 67.0175Z" fill="#FEC127"/>
<path d="M71.266 61.9138C70.947 62.2328 70.947 62.8709 71.266 63.19C71.585 63.509 72.2231 63.509 72.5421 63.19C72.8612 62.8709 72.8612 62.2328 72.5421 61.9138C72.2231 61.4884 71.585 61.4884 71.266 61.9138Z" fill="#FEC127"/>
<path d="M76.3515 58.0824C76.1389 57.8697 75.8198 57.8697 75.7135 58.0824C75.5008 58.2951 75.5008 58.6141 75.7135 58.7205C75.9262 58.9332 76.2452 58.9332 76.3515 58.7205C76.5642 58.6141 76.5642 58.2951 76.3515 58.0824Z" fill="#FEC127"/>
<path d="M53.6114 65.9519C52.7606 66.4836 52.4416 67.5471 52.9733 68.5043C53.5051 69.3551 54.5685 69.6741 55.5256 69.1424C56.3763 68.6106 56.6954 67.5471 56.1637 66.59C55.6319 65.7392 54.5685 65.4201 53.6114 65.9519Z" fill="#FED627"/>
<path d="M62.323 61.9119C61.8976 62.231 61.6849 62.7627 62.004 63.2945C62.323 63.7199 62.8547 63.9326 63.3864 63.6135C63.8118 63.2945 64.0245 62.7627 63.7055 62.231C63.3864 61.8056 62.7484 61.5929 62.323 61.9119Z" fill="#FED627"/>
<path d="M68.8101 58.2963C68.3848 58.509 68.2784 59.0407 68.4911 59.4661C68.7038 59.8916 69.2355 59.9979 69.6609 59.7852C70.0863 59.5725 70.1926 59.0407 69.9799 58.6153C69.6609 58.1899 69.2355 58.0836 68.8101 58.2963Z" fill="#FED627"/>
<path d="M49.8812 44.79H52.8589V56.0632H49.8812V44.79ZM51.6891 39.7915C50.732 39.5788 49.8812 40.1106 49.5622 40.9614C49.2432 41.8122 49.8812 42.7694 50.732 43.0884C51.5828 43.4075 52.5399 42.7694 52.8589 41.9185C53.1779 40.9614 52.6462 40.0042 51.6891 39.7915ZM61.8981 56.3823C61.1537 56.3823 60.5157 56.2759 59.7713 55.9569C59.1332 55.6378 58.7078 55.3188 58.2824 54.787V61.8062H55.4111V44.79H58.2824V46.3853C58.6015 45.8535 59.1332 45.4281 59.7713 45.1091C60.4093 44.79 61.1537 44.5773 61.8981 44.5773C62.6426 44.5773 63.2806 44.6837 63.9187 45.0027C64.5568 45.3218 65.1948 45.6408 65.6202 46.1726C66.1519 46.7043 66.5773 47.3424 66.79 48.0869C67.109 48.8314 67.2154 49.6822 67.2154 50.533C67.2154 51.3838 67.109 52.2346 66.79 52.979C66.471 53.6171 66.0456 54.2552 65.5139 54.8933C64.6631 55.8505 63.387 56.3823 61.8981 56.3823ZM61.3664 53.6171C61.7918 53.6171 62.2172 53.5108 62.6426 53.4044C62.9616 53.1917 63.387 52.979 63.5997 52.7663C63.9187 52.4473 64.1314 52.1282 64.2377 51.8092C64.5568 50.9584 64.5568 50.1076 64.2377 49.2568C64.1314 48.9377 63.8124 48.5123 63.5997 48.2996C63.2806 47.9805 62.9616 47.7678 62.6426 47.6615C62.2172 47.4488 61.7918 47.4488 61.3664 47.4488C60.5157 47.4488 59.7713 47.7678 59.1332 48.4059C58.8142 48.725 58.6015 49.0441 58.4951 49.3631C58.1761 50.2139 58.1761 51.0647 58.4951 51.8092C58.6015 52.1282 58.8142 52.5536 59.1332 52.7663C59.6649 53.2981 60.5157 53.6171 61.3664 53.6171ZM69.4486 44.79H72.3199V46.4916C72.5326 45.8535 72.958 45.3218 73.596 45.0027C74.2341 44.6837 74.8722 44.471 75.5102 44.5773C75.8293 44.5773 76.2546 44.5773 76.5737 44.6837C76.8927 44.79 77.2117 44.8964 77.4244 45.0027L76.361 47.8742C76.1483 47.7678 75.9356 47.6615 75.7229 47.5551C75.4039 47.4488 75.0848 47.4488 74.8722 47.4488C74.2341 47.4488 73.596 47.6615 73.0643 48.0869C72.6389 48.5123 72.4262 49.1504 72.4262 50.1076V56.0632H69.5549L69.4486 44.79ZM83.6987 56.3823C82.848 56.3823 82.1036 56.2759 81.3592 55.9569C80.6148 55.6378 79.9767 55.2124 79.445 54.6806C78.3815 53.6171 77.7435 52.1282 77.7435 50.533C77.7435 49.7885 77.8498 48.9377 78.1688 48.1932C78.4879 47.4488 78.9132 46.8107 79.445 46.2789C81.7845 43.9392 85.6129 43.9392 87.9525 46.2789C89.016 47.3424 89.654 48.8314 89.654 50.4266C89.654 51.1711 89.5477 52.0219 89.2286 52.66C88.9096 53.4044 88.4842 54.0425 87.9525 54.5743C87.4208 55.1061 86.7827 55.5315 86.0383 55.8505C85.4002 56.1696 84.5495 56.3823 83.6987 56.3823ZM83.8051 53.6171C84.2305 53.6171 84.6558 53.5108 85.0812 53.4044C85.4002 53.1917 85.7193 52.979 86.0383 52.7663C86.3573 52.4473 86.57 52.1282 86.6764 51.8092C86.9954 50.9584 86.9954 50.1076 86.6764 49.3631C86.57 49.0441 86.3573 48.6187 86.0383 48.4059C85.7193 48.0869 85.4002 47.8742 85.0812 47.7678C84.3368 47.4488 83.3797 47.4488 82.6353 47.7678C82.3163 47.9805 81.9972 48.1932 81.6782 48.4059C81.3592 48.725 81.1465 49.0441 81.0401 49.3631C80.7211 50.2139 80.7211 51.0647 81.0401 51.8092C81.1465 52.1282 81.3592 52.5536 81.6782 52.7663C81.9972 52.979 82.3163 53.2981 82.6353 53.4044C82.9543 53.5108 83.3797 53.6171 83.8051 53.6171ZM29.4631 44.79H32.4408L34.674 52.0219L37.3326 44.79H39.8849L42.5435 52.0219L44.8831 44.79H47.8607L44.0323 56.0632H41.2674L38.6087 48.725L35.8438 56.0632H33.0788L29.4631 44.79Z" fill="#351A55"/>
</svg>
