<svg width="151" height="101" viewBox="0 0 151 101" fill="none" xmlns="http://www.w3.org/2000/svg">
<path d="M17.8721 44.115L16.7805 48.1326L23.0283 44.0921L18.9421 59.3378L23.0921 59.3413L29.1285 36.8228" fill="#3395FF"/>
<path d="M11.1441 52.9304L9.42529 59.3398H17.9311L21.4116 46.3014L11.1441 52.9304ZM40.6901 47.2876C40.4821 48.0604 40.0816 48.628 39.4842 48.9905C38.8881 49.3522 38.0516 49.5338 36.9719 49.5338H33.5413L34.7458 45.0428H38.1764C39.2548 45.0428 39.9956 45.223 40.3976 45.5904C40.7996 45.9577 40.8966 46.519 40.6901 47.2953M44.2419 47.1982C44.6785 45.5765 44.4984 44.329 43.7 43.4558C42.903 42.5895 41.5044 42.1528 39.5084 42.1528H31.8523L27.2435 59.3474H30.9631L32.8205 52.4169H35.26C35.8075 52.4169 36.2386 52.507 36.5533 52.6802C36.8686 52.8604 37.0536 53.1723 37.1105 53.6228L37.7744 59.3474H41.7594L41.1135 54.0109C40.9818 52.8189 40.4364 52.1189 39.4779 51.911C40.6998 51.5575 41.7234 50.9684 42.5481 50.1506C43.3671 49.3388 43.9522 48.3213 44.2419 47.2052M53.2834 53.1931C52.9716 54.3574 52.4934 55.2376 51.8467 55.8544C51.1994 56.4712 50.426 56.7762 49.5236 56.7762C48.6047 56.7762 47.9816 56.4782 47.6524 55.8752C47.3225 55.2722 47.3114 54.399 47.6178 53.2555C47.9241 52.1119 48.4127 51.2179 49.0849 50.5734C49.7572 49.9288 50.5431 49.6066 51.4455 49.6066C52.3464 49.6066 52.9632 49.9184 53.2751 50.5373C53.5939 51.159 53.6008 52.0482 53.289 53.2056L53.2834 53.1931ZM54.9135 47.1081L54.4477 48.8477C54.2468 48.2239 53.8566 47.7249 53.28 47.3507C52.702 46.9834 51.9867 46.7963 51.1336 46.7963C50.0871 46.7963 49.0822 47.0665 48.1188 47.6071C47.1555 48.1477 46.31 48.9101 45.5892 49.8942C44.8684 50.8783 44.3417 51.9941 44.0021 53.2485C43.6695 54.5099 43.6002 55.6118 43.8011 56.5682C44.0091 57.5316 44.4457 58.2662 45.1179 58.7791C45.7971 59.2989 46.6634 59.5553 47.7238 59.5553C48.5664 59.5596 49.3995 59.3773 50.1633 59.0216C50.9185 58.681 51.5903 58.1796 52.1316 57.5524L51.6464 59.3654H55.2434L58.5277 47.1144H54.9239L54.9135 47.1081ZM71.4531 47.1081H60.9929L60.2617 49.8387H66.3481L58.3018 56.79L57.6143 59.3543H68.412L69.1431 56.6237H62.6216L70.7912 49.5685M80.6602 53.1723C80.3365 54.3782 79.8563 55.2847 79.2221 55.8752C78.588 56.4712 77.8201 56.7692 76.9184 56.7692C75.0333 56.7692 74.4138 55.5703 75.0569 53.1723C75.3757 51.9803 75.8581 51.0842 76.5026 50.4805C77.1471 49.8748 77.9282 49.5726 78.8465 49.5726C79.7475 49.5726 80.3559 49.8727 80.6692 50.477C80.9825 51.08 80.9797 51.9789 80.6602 53.1709M82.7657 47.569C81.9375 47.0534 80.8806 46.7956 79.5915 46.7956C78.2865 46.7956 77.0785 47.052 75.9669 47.5649C74.8598 48.0745 73.8869 48.8353 73.1254 49.7868C72.3422 50.7501 71.7788 51.8798 71.433 53.1688C71.0934 54.4531 71.0518 55.5807 71.3151 56.5461C71.5785 57.5094 72.1329 58.251 72.9646 58.7638C73.8032 59.2808 74.8705 59.538 76.1803 59.538C77.4694 59.538 78.6684 59.2788 79.7703 58.7631C80.8723 58.2447 81.8148 57.5087 82.598 56.5384C83.3811 55.5723 83.9425 54.4454 84.289 53.1564C84.6355 51.8673 84.6771 50.7418 84.4137 49.7743C84.1504 48.811 83.6029 48.0694 82.7781 47.5531M95.6065 50.3807L96.5282 47.0471C96.2163 46.8877 95.8074 46.8046 95.2946 46.8046C94.4699 46.8046 93.6798 47.0083 92.9174 47.4214C92.2618 47.7721 91.7046 48.2669 91.2333 48.8865L91.7115 47.0915L90.6671 47.0957H88.1028L84.797 59.3418H88.4445L90.1598 52.9401C90.4093 52.0094 90.8584 51.2768 91.5064 50.757C92.1509 50.2352 92.9549 49.9739 93.9251 49.9739C94.5211 49.9739 95.0756 50.1104 95.6023 50.3828M105.755 53.2312C105.444 54.3747 104.972 55.248 104.328 55.8509C103.683 56.4567 102.907 56.7588 102.006 56.7588C101.105 56.7588 100.488 56.4539 100.163 55.844C99.8299 55.2307 99.823 54.347 100.135 53.1855C100.447 52.0246 100.925 51.1341 101.583 50.5172C102.242 49.8956 103.018 49.5851 103.919 49.5851C104.806 49.5851 105.402 49.9039 105.721 50.5484C106.04 51.193 106.047 52.087 105.74 53.2305M108.291 47.5891C107.615 47.0485 106.752 46.7782 105.706 46.7782C104.789 46.7782 103.915 46.9862 103.086 47.4061C102.258 47.8254 101.585 48.3972 101.069 49.1207L101.082 49.0376L101.693 47.0901H98.1312L97.2233 50.4791L97.1956 50.5969L93.4532 64.5577H97.1055L98.9906 57.5302C99.1777 58.1553 99.5589 58.646 100.141 59.0009C100.723 59.3543 101.442 59.5296 102.296 59.5296C103.357 59.5296 104.369 59.2732 105.329 58.7604C106.292 58.2461 107.124 57.5059 107.83 56.5495C108.537 55.5931 109.062 54.4843 109.397 53.2298C109.736 51.9733 109.806 50.8527 109.612 49.872C109.414 48.89 108.977 48.1297 108.302 47.5919M120.406 53.1813C120.094 54.3387 119.616 55.2258 118.971 55.8357C118.327 56.4497 117.55 56.7554 116.649 56.7554C115.728 56.7554 115.104 56.4574 114.778 55.8544C114.446 55.2515 114.439 54.3782 114.744 53.2347C115.049 52.0912 115.535 51.1971 116.207 50.5526C116.88 49.908 117.666 49.5865 118.569 49.5865C119.469 49.5865 120.079 49.8983 120.398 50.5152C120.717 51.1341 120.719 52.0232 120.409 53.1834L120.406 53.1813ZM122.034 47.0929L121.568 48.8324C121.367 48.2052 120.979 47.7062 120.404 47.3355C119.822 46.9654 119.108 46.781 118.255 46.781C117.209 46.781 116.198 47.0513 115.234 47.5919C114.27 48.1325 113.425 48.8907 112.704 49.872C111.983 50.8534 111.456 51.9719 111.117 53.2264C110.781 54.4856 110.715 55.5897 110.916 56.5502C111.119 57.5066 111.556 58.2454 112.233 58.7611C112.908 59.2739 113.778 59.5331 114.839 59.5331C115.691 59.5331 116.505 59.3557 117.278 58.9995C118.032 58.6573 118.701 58.1552 119.241 57.5281L118.756 59.3425H122.353L125.637 47.0964H122.04L122.034 47.0929ZM140.738 47.097L140.74 47.0936H138.529C138.458 47.0936 138.396 47.097 138.331 47.0984H137.184L136.595 47.9162L136.45 48.1103L136.387 48.2073L131.727 54.6998L130.763 47.097H126.946L128.88 58.6502L124.611 64.5619H128.415L129.448 63.0975C129.477 63.0545 129.503 63.0185 129.538 62.9727L130.744 61.2609L130.779 61.2124L136.18 53.5542L140.733 47.1088L140.74 47.1047H140.738V47.097Z" fill="black"/>
</svg>
