<svg width="34" height="25" viewBox="0 0 34 25" fill="none" xmlns="http://www.w3.org/2000/svg">
<path d="M23.3333 21.6668V25.0001H0V21.6668C0 21.6668 0 15.0001 11.6667 15.0001C23.3333 15.0001 23.3333 21.6668 23.3333 21.6668ZM17.5 5.83342C17.5 4.6797 17.1579 3.55188 16.5169 2.59259C15.8759 1.63331 14.9649 0.885635 13.899 0.444124C12.8331 0.00261277 11.6602 -0.112907 10.5286 0.112174C9.39708 0.337254 8.35768 0.892825 7.54188 1.70863C6.72607 2.52444 6.1705 3.56384 5.94542 4.69539C5.72034 5.82695 5.83586 6.99984 6.27737 8.06574C6.71888 9.13164 7.46655 10.0427 8.42584 10.6837C9.38513 11.3246 10.5129 11.6668 11.6667 11.6668C13.2138 11.6668 14.6975 11.0522 15.7915 9.95821C16.8854 8.86425 17.5 7.38052 17.5 5.83342ZM23.2333 15.0001C24.2579 15.793 25.0963 16.8008 25.6895 17.9526C26.2826 19.1044 26.6162 20.3722 26.6667 21.6668V25.0001H33.3333V21.6668C33.3333 21.6668 33.3333 15.6168 23.2333 15.0001ZM21.6667 8.76317e-05C20.5195 -0.00630023 19.3975 0.33668 18.45 0.983421C19.4624 2.39798 20.0068 4.0939 20.0068 5.83342C20.0068 7.57294 19.4624 9.26886 18.45 10.6834C19.3975 11.3302 20.5195 11.6731 21.6667 11.6668C23.2138 11.6668 24.6975 11.0522 25.7915 9.95821C26.8854 8.86425 27.5 7.38052 27.5 5.83342C27.5 4.28632 26.8854 2.80259 25.7915 1.70863C24.6975 0.61467 23.2138 8.76317e-05 21.6667 8.76317e-05Z" fill="#065AFF"/>
</svg>
